#N canvas 519 101 973 416 10;
#X obj 71 240 zmq/zmq;
#X msg 71 210 about;
#X msg 114 210 version;
#X floatatom 71 267 8 0 0 0 - - -, f 8;
#X msg 166 210 close;
#X obj 488 248 zmq/zmq;
#X msg 488 218 about;
#X msg 531 218 version;
#X floatatom 488 275 8 0 0 0 - - -, f 8;
#X msg 587 219 close;
#X msg 488 134 send hello;
#X obj 140 257 select hello;
#X msg 210 223 send world;
#X obj 210 204 delay 1;
#X obj 564 275 print request_socket:;
#X obj 140 281 print reply_socket:;
#X msg 71 53 socket reply;
#X msg 71 76 bind tcp://127.0.0.1:6001;
#X msg 488 79 connect tcp://127.0.0.1:6001;
#X msg 488 56 socket request;
#X msg 71 99 start_receive;
#X msg 488 102 start_receive;
#X text 26 53 #1;
#X text 26 76 #2;
#X text 26 98 #3;
#X text 446 54 #4;
#X text 446 77 #5;
#X text 446 99 #6;
#X text 426 133 last:;
#X connect 0 0 3 0;
#X connect 0 0 11 0;
#X connect 0 0 15 0;
#X connect 1 0 0 0;
#X connect 2 0 0 0;
#X connect 4 0 0 0;
#X connect 5 0 8 0;
#X connect 5 0 14 0;
#X connect 6 0 5 0;
#X connect 7 0 5 0;
#X connect 9 0 5 0;
#X connect 10 0 5 0;
#X connect 11 0 13 0;
#X connect 12 0 0 0;
#X connect 13 0 12 0;
#X connect 16 0 0 0;
#X connect 17 0 0 0;
#X connect 18 0 5 0;
#X connect 19 0 5 0;
#X connect 20 0 0 0;
#X connect 21 0 5 0;
