#N canvas 523 102 964 362 10;
#X obj 71 240 zmq/zmq;
#X msg 71 210 about;
#X msg 114 210 version;
#X msg 5 127 socket request;
#X floatatom 71 267 8 0 0 0 - - -;
#X symbolatom 141 268 30 0 0 0 - - -;
#X msg -7 40 close;
#X obj 488 248 zmq/zmq;
#X msg 488 218 about;
#X msg 531 218 version;
#X msg 469 176 socket reply;
#X floatatom 488 275 8 0 0 0 - - -;
#X symbolatom 558 276 30 0 0 0 - - -;
#X msg 410 48 close;
#X msg 533 44 send cam-2::sendPi;
#X msg 87 55 send hello;
#X obj 558 304 select hello;
#X msg 558 330 send world;
#X msg 134 125 connect tcp://127.0.0.1:6001;
#X msg 537 102 bind tcp://127.0.0.1:6001;
#X obj 637 304 print;
#X connect 0 0 4 0;
#X connect 0 0 5 0;
#X connect 1 0 0 0;
#X connect 2 0 0 0;
#X connect 3 0 0 0;
#X connect 6 0 0 0;
#X connect 7 0 11 0;
#X connect 7 0 12 0;
#X connect 8 0 7 0;
#X connect 9 0 7 0;
#X connect 10 0 7 0;
#X connect 12 0 16 0;
#X connect 13 0 7 0;
#X connect 14 0 7 0;
#X connect 15 0 0 0;
#X connect 16 0 20 0;
#X connect 17 0 7 0;
#X connect 18 0 0 0;
#X connect 19 0 7 0;
