#N canvas 534 557 968 326 10;
#X msg 544 83 socket subscribe;
#X msg 584 116 connect tcp://127.0.0.1:5555;
#X obj 544 222 print;
#X msg 489 156 close;
#X msg 92 84 socket publish;
#X msg 136 127 bind tcp://127.0.0.1:5555;
#X obj 237 52 metro 1000;
#X obj 237 31 tgl 15 0 empty empty empty 17 7 0 10 -262144 -1 -1 1
1;
#X obj 237 75 random 1000;
#X obj 92 188 zmq;
#X obj 544 173 zmq;
#X floatatom 595 257 5 0 0 0 - - -, f 5;
#X obj 332 33 tgl 15 0 empty empty empty 17 7 0 10 -262144 -1 -1 1
1;
#X obj 332 76 random 5;
#X obj 332 54 metro 666;
#X symbolatom 647 282 10 0 0 0 - - -, f 10;
#X msg 666 136 subscribe blubb;
#X msg 332 97 send blubb symbol msg-\$1;
#X msg 237 98 send random \$1;
#X msg 668 156 subscribe random;
#X obj 595 222 route random blubb;
#X msg 680 177 unsubscribe random;
#X connect 0 0 10 0;
#X connect 1 0 10 0;
#X connect 3 0 10 0;
#X connect 4 0 9 0;
#X connect 5 0 9 0;
#X connect 6 0 8 0;
#X connect 7 0 6 0;
#X connect 8 0 18 0;
#X connect 10 0 2 0;
#X connect 10 0 20 0;
#X connect 12 0 14 0;
#X connect 13 0 17 0;
#X connect 14 0 13 0;
#X connect 16 0 10 0;
#X connect 17 0 9 0;
#X connect 18 0 9 0;
#X connect 19 0 10 0;
#X connect 20 0 11 0;
#X connect 20 1 15 0;
#X connect 21 0 10 0;
