#N canvas 915 317 530 505 10;
#X obj 168 203 zmq;
#X msg 188 131 connect tcp://127.0.0.1:6000;
#X msg 168 91 socket pull;
#X msg 204 166 start_receive;
#X obj 168 344 osc~;
#X obj 168 289 mtof;
#X obj 169 408 *~;
#X obj 168 452 dac~;
#X obj 204 28 loadbang;
#X obj 202 344 line~;
#X obj 168 244 unpack 1 3 4;
#X msg 202 320 \$1 \, 0 \$2;
#X obj 202 290 pack 1 2;
#X obj 117 306 / 3;
#X obj 117 339 osc~;
#X obj 117 361 *~ 0.33;
#X obj 67 306 / 5;
#X obj 67 339 osc~;
#X obj 67 361 *~ 0.22;
#X obj 169 369 *~ 0.66;
#X obj 17 339 osc~;
#X obj 17 306 / 7;
#X obj 17 361 *~ 0.11;
#X msg 255 78 \; pd dsp 1;
#X obj 204 53 t b b b b;
#X connect 0 0 10 0;
#X connect 1 0 0 0;
#X connect 2 0 0 0;
#X connect 3 0 0 0;
#X connect 4 0 19 0;
#X connect 5 0 4 0;
#X connect 5 0 13 0;
#X connect 5 0 16 0;
#X connect 5 0 21 0;
#X connect 6 0 7 0;
#X connect 6 0 7 1;
#X connect 8 0 24 0;
#X connect 9 0 6 1;
#X connect 10 0 5 0;
#X connect 10 1 12 0;
#X connect 10 2 12 1;
#X connect 11 0 9 0;
#X connect 12 0 11 0;
#X connect 13 0 14 0;
#X connect 14 0 15 0;
#X connect 15 0 6 0;
#X connect 16 0 17 0;
#X connect 17 0 18 0;
#X connect 18 0 6 0;
#X connect 19 0 6 0;
#X connect 20 0 22 0;
#X connect 21 0 20 0;
#X connect 22 0 6 0;
#X connect 24 0 3 0;
#X connect 24 1 1 0;
#X connect 24 2 2 0;
#X connect 24 3 23 0;
